<svg version="1.1" id="Layer_1" xmlns="http://www.w3.org/2000/svg" xmlns:xlink="http://www.w3.org/1999/xlink" x="0px" y="0px"
	 width="100%" viewBox="0 0 980 980" enable-background="new 0 0 980 980" xml:space="preserve">
<path fill="#66BB6A" opacity="1.000000" stroke="none" 
	d="
M657.000000,981.000000 
	C438.000000,981.000000 219.500000,981.000000 1.000000,981.000000 
	C1.000000,654.333313 1.000000,327.666656 1.000000,1.000000 
	C327.666656,1.000000 654.333313,1.000000 981.000000,1.000000 
	C981.000000,327.666656 981.000000,654.333313 981.000000,981.000000 
	C873.166687,981.000000 765.333313,981.000000 657.000000,981.000000 
M338.057251,245.274857 
	C337.739319,245.108597 337.421387,244.942352 336.803772,244.295151 
	C336.194550,243.858505 335.585358,243.421875 334.738983,242.476425 
	C334.137817,242.061707 333.536621,241.646988 332.677063,240.975540 
	C332.677063,240.975540 332.338776,240.840546 332.058716,240.346436 
	C331.723846,240.187744 331.388977,240.029037 330.660156,239.356934 
	C330.146545,238.968506 329.632935,238.580078 328.938995,237.705338 
	C328.368744,237.344986 327.798523,236.984650 327.213470,236.738297 
	C327.213470,236.738297 327.327576,236.752151 327.079285,236.254028 
	C326.754303,236.091187 326.429291,235.928345 325.875946,235.391602 
	C325.688446,235.154251 325.449921,234.991867 324.837646,234.329514 
	C321.925293,232.168198 319.012909,230.006882 315.738220,227.342651 
	C314.561249,226.516434 313.384308,225.690216 311.906433,224.335007 
	C310.910126,223.666138 309.913788,222.997269 308.648193,222.024521 
	C308.648193,222.024521 308.287170,221.838730 308.031769,221.350632 
	C307.701233,221.212143 307.370728,221.073654 306.649261,220.492844 
	C306.020416,220.026169 305.391571,219.559494 304.484070,218.572220 
	C303.645325,218.094223 302.806610,217.616241 301.746674,216.905289 
	C301.746674,216.905289 301.446167,216.791718 301.142212,216.283615 
	C300.792419,216.117661 300.442657,215.951721 299.811737,215.420456 
	C299.582520,215.203735 299.314301,215.059448 298.694092,214.444992 
	C297.807953,213.929214 296.921783,213.413437 295.751923,212.505920 
	C295.344574,212.256775 294.937225,212.007645 294.195129,211.257248 
	C293.843628,211.077286 293.492126,210.897339 292.719879,210.289978 
	C292.542542,210.197693 292.365234,210.105408 292.280457,209.911987 
	C292.280457,209.911987 292.103973,209.953140 291.609558,209.446152 
	C291.184326,209.245087 290.759094,209.044022 290.031433,208.372574 
	C289.698914,208.219940 289.366394,208.067291 289.024323,207.978210 
	C289.024323,207.978210 289.076904,207.941238 288.791504,207.363144 
	C287.535889,206.576279 286.280273,205.789413 285.019928,204.965042 
	C285.019928,204.965042 284.985962,204.981644 284.711792,204.524277 
	C284.104584,204.195023 283.497406,203.865784 282.421661,203.058823 
	C281.297272,202.351852 280.172852,201.644867 278.738342,200.394440 
	C277.119720,199.420319 275.501068,198.446213 273.498413,197.159821 
	C273.498413,197.159821 273.048370,196.953766 272.735779,196.419601 
	C271.459351,195.738693 270.182953,195.057770 268.596466,194.061676 
	C268.596466,194.061676 268.192291,193.882477 267.821411,193.338135 
	C265.904358,192.209457 263.987305,191.080780 262.053925,189.938660 
	C262.053925,189.938660 262.033997,189.931778 261.679901,189.427383 
	C260.400970,188.767334 259.122040,188.107285 257.661499,187.272629 
	C257.661499,187.272629 257.413483,187.228424 257.090515,186.734528 
	C256.049896,186.199417 255.009293,185.664307 253.672470,184.916183 
	C253.672470,184.916183 253.317719,184.831024 253.008041,184.387665 
	C252.677185,184.266113 252.346344,184.144547 251.485611,183.602036 
	C237.780762,177.216721 224.406372,169.919540 210.247162,164.787872 
	C201.746536,161.707047 192.050110,161.365234 182.838776,160.948257 
	C171.425766,160.431610 159.560471,172.665680 160.024261,184.206116 
	C160.361740,192.603302 161.047226,201.216553 163.276978,209.262527 
	C168.929779,229.660446 179.574417,247.848770 190.770889,265.606812 
	C217.144562,307.436493 248.572617,345.320312 282.177429,381.462769 
	C288.331696,388.081696 294.657898,394.540710 301.286194,401.621674 
	C304.520721,404.745819 307.755249,407.869965 311.307831,411.583466 
	C314.583618,414.715546 317.859406,417.847626 321.360565,421.590546 
	C324.862213,424.786926 328.363831,427.983307 331.884979,431.112030 
	C331.884979,431.112030 331.817657,431.132660 332.063507,431.744598 
	C333.692200,433.184174 335.320892,434.623779 336.994446,436.003448 
	C336.994446,436.003448 336.935394,436.049652 337.185974,436.662323 
	C340.424957,439.490601 343.663910,442.318909 346.919098,445.082397 
	C346.919098,445.082397 346.854156,445.098114 347.068085,445.659027 
	C347.671814,446.162598 348.275543,446.666168 348.897705,447.102722 
	C348.897705,447.102722 348.831238,447.123108 349.015686,447.636871 
	C349.734070,448.143188 350.452454,448.649506 351.298553,449.538971 
	C351.298553,449.538971 351.499237,449.889435 351.264923,450.606628 
	C351.092682,452.089142 350.920441,453.571686 350.448517,455.677155 
	C350.366394,456.129883 350.284271,456.582611 349.915710,457.494507 
	C349.926025,458.026306 349.936310,458.558075 349.676025,459.810608 
	C349.557007,460.567139 349.437958,461.323700 349.014923,462.786438 
	C348.302704,473.203949 347.590485,483.621460 346.730042,494.824829 
	C346.807617,495.882690 346.885193,496.940521 346.758698,498.770081 
	C346.592773,519.560486 350.351440,539.812012 355.357269,559.863525 
	C356.837219,565.791626 358.975647,571.555298 360.805817,577.722534 
	C360.805817,577.722534 360.971375,578.006104 360.955505,578.530334 
	C361.039703,578.683533 361.123871,578.836731 361.287292,579.679321 
	C361.473267,580.100403 361.659241,580.521423 361.813049,581.670471 
	C364.257843,588.308960 366.702637,594.947449 369.263794,602.305664 
	C369.379822,602.519165 369.495850,602.732727 369.645599,603.541687 
	C369.992462,604.247986 370.339294,604.954224 370.664581,605.870972 
	C370.664581,605.870972 370.838043,605.992065 370.891663,606.709473 
	C371.511749,607.992615 372.131836,609.275818 372.876495,611.225891 
	C373.400848,612.473022 373.925201,613.720154 374.583954,615.663574 
	C376.035309,618.798828 377.486694,621.934143 378.999969,625.012878 
	C378.999969,625.012878 378.927765,625.053894 379.013092,625.715271 
	C379.621307,626.879456 380.229553,628.043701 380.958557,629.922913 
	C383.877014,635.903442 386.666626,641.950989 389.733765,647.854248 
	C422.703644,711.311462 466.121582,767.155396 514.772156,819.167664 
	C520.635498,825.436096 524.292786,825.432190 530.305420,819.417236 
	C561.503174,788.207092 592.663330,756.959412 623.846863,725.734985 
	C689.158325,660.338074 754.477661,594.949036 819.788086,529.551025 
	C824.241577,525.091492 824.275513,521.047119 819.597839,516.692810 
	C810.825195,508.526520 802.042908,500.362152 793.038574,492.454407 
	C755.675354,459.641571 716.174683,429.722046 673.094727,404.728607 
	C632.098511,380.944092 589.234070,361.757477 542.446350,352.434540 
	C514.099792,346.786163 485.589813,344.925903 457.106934,350.876251 
	C450.677521,352.219391 447.297638,350.386932 443.093750,346.024750 
	C423.927307,326.136780 404.340607,306.653809 384.692841,286.446533 
	C383.431488,285.398285 382.170105,284.350006 380.671570,283.006500 
	C380.671570,283.006500 380.335968,282.830933 380.101898,282.301941 
	C379.782440,282.101135 379.462982,281.900330 378.860260,281.232086 
	C378.305511,280.771729 377.750732,280.311340 376.979095,279.295654 
	C376.348236,278.835449 375.717377,278.375244 375.001221,277.998779 
	C375.001221,277.998779 375.083618,277.912476 374.867218,277.365875 
	C374.258728,276.899750 373.650238,276.433655 372.644165,275.416016 
	C372.122833,274.987915 371.601501,274.559814 370.959534,273.780212 
	C370.649567,273.597809 370.339600,273.415375 369.563599,272.793762 
	C368.465210,271.798462 367.366821,270.803162 365.971924,269.215240 
	C363.619995,267.263794 361.268097,265.312347 358.571594,262.910095 
	C358.135712,262.553284 357.699829,262.196503 356.961487,261.272461 
	C355.620026,260.231476 354.278564,259.190460 352.685242,257.671967 
	C352.386169,257.479980 352.087128,257.287964 351.465088,256.529724 
	C347.989960,253.680801 344.514801,250.831894 340.734955,247.587662 
	C340.509064,247.337357 340.245239,247.137054 339.689178,246.469345 
	C339.192749,246.196472 338.696289,245.923615 338.199158,245.761368 
	C338.199158,245.761368 338.309784,245.761139 338.057251,245.274857 
z"/>
<path fill="#F6FDF5" opacity="1.000000" stroke="none" 
	d="
M360.971375,578.006104 
	C360.971375,578.006104 360.805817,577.722534 360.846039,577.108521 
	C359.265350,569.089233 357.599426,561.693420 356.034729,554.276245 
	C353.984924,544.559448 351.696869,534.877502 350.104401,525.084106 
	C348.647125,516.122192 347.978760,507.032013 346.962769,497.998383 
	C346.885193,496.940521 346.807617,495.882690 346.995850,494.066223 
	C347.758057,488.741058 348.422913,484.185028 348.708649,479.605347 
	C349.072510,473.773621 349.129608,467.922821 349.318909,462.080231 
	C349.437958,461.323700 349.557007,460.567139 349.999390,459.380280 
	C350.282562,458.311737 350.242371,457.673553 350.202148,457.035339 
	C350.284271,456.582611 350.366394,456.129883 350.802765,455.182373 
	C351.271088,453.088196 351.385162,451.488800 351.499207,449.889435 
	C351.499237,449.889435 351.298553,449.538971 351.137207,449.092651 
	C350.261017,448.138580 349.546112,447.630859 348.831238,447.123108 
	C348.831238,447.123108 348.897705,447.102722 348.796814,446.842224 
	C348.082001,446.087219 347.468079,445.592682 346.854156,445.098114 
	C346.854156,445.098114 346.919098,445.082397 346.813660,444.792206 
	C343.450623,441.684570 340.192993,438.867096 336.935394,436.049652 
	C336.935394,436.049652 336.994446,436.003448 336.921692,435.694824 
	C335.171875,433.968353 333.494751,432.550507 331.817657,431.132660 
	C331.817657,431.132660 331.884979,431.112030 331.813293,430.801025 
	C328.673462,426.798706 326.597351,422.001068 321.135193,420.979706 
	C317.859406,417.847626 314.583618,414.715546 311.073914,410.949554 
	C307.528229,407.234955 304.216461,404.154266 300.904694,401.073547 
	C294.657898,394.540710 288.331696,388.081696 282.177429,381.462769 
	C248.572617,345.320312 217.144562,307.436493 190.770889,265.606812 
	C179.574417,247.848770 168.929779,229.660446 163.276978,209.262527 
	C161.047226,201.216553 160.361740,192.603302 160.024261,184.206116 
	C159.560471,172.665680 171.425766,160.431610 182.838776,160.948257 
	C192.050110,161.365234 201.746536,161.707047 210.247162,164.787872 
	C224.406372,169.919540 237.780762,177.216721 251.928528,184.004059 
	C252.686874,184.547745 253.002304,184.689377 253.317719,184.831024 
	C253.317719,184.831024 253.672470,184.916183 253.958435,185.292068 
	C255.300751,186.188110 256.357117,186.708267 257.413483,187.228424 
	C257.413483,187.228424 257.661499,187.272629 257.912750,187.629013 
	C259.454010,188.634201 260.743988,189.282990 262.033997,189.931778 
	C262.033997,189.931778 262.053925,189.938660 262.181458,190.258423 
	C264.270081,191.679626 266.231201,192.781052 268.192291,193.882477 
	C268.192291,193.882477 268.596466,194.061676 268.897644,194.497208 
	C270.482025,195.606415 271.765198,196.280090 273.048370,196.953766 
	C273.048370,196.953766 273.498413,197.159821 273.810669,197.609192 
	C275.764740,199.018326 277.406616,199.978104 279.048462,200.937881 
	C280.172852,201.644867 281.297272,202.351852 282.793762,203.525299 
	C283.772552,204.321747 284.379272,204.651688 284.985962,204.981628 
	C284.985962,204.981644 285.019928,204.965042 285.191345,205.259064 
	C286.600830,206.349136 287.838867,207.145187 289.076904,207.941238 
	C289.076904,207.941238 289.024323,207.978210 289.201904,208.157410 
	C289.697601,208.505386 290.015747,208.674164 290.333862,208.842941 
	C290.759094,209.044022 291.184326,209.245087 291.845459,209.730896 
	C292.081390,210.015640 292.187897,210.013123 292.187897,210.013123 
	C292.365234,210.105408 292.542542,210.197693 293.111053,210.737579 
	C293.844788,211.376312 294.187317,211.567413 294.529877,211.758514 
	C294.937225,212.007645 295.344574,212.256775 296.056274,212.973267 
	C297.242798,213.956299 298.124939,214.471954 299.007111,214.987625 
	C299.314301,215.059448 299.582520,215.203735 300.135193,215.823257 
	C300.787811,216.414612 301.116974,216.603165 301.446167,216.791718 
	C301.446167,216.791718 301.746674,216.905289 301.981323,217.298950 
	C303.064911,218.159348 303.913818,218.626083 304.762726,219.092819 
	C305.391571,219.559494 306.020416,220.026169 307.015808,220.911499 
	C307.683990,221.499664 307.985565,221.669189 308.287170,221.838730 
	C308.287170,221.838730 308.648193,222.024521 308.867737,222.488785 
	C310.127289,223.590027 311.167297,224.227005 312.207336,224.863983 
	C313.384308,225.690216 314.561249,226.516434 315.974243,227.939362 
	C319.193634,230.658875 322.177002,232.781662 325.160370,234.904449 
	C325.449921,234.991867 325.688446,235.154251 326.148407,235.793915 
	C326.723114,236.381546 327.025330,236.566849 327.327576,236.752151 
	C327.327576,236.752151 327.213470,236.738297 327.320068,236.922760 
	C327.990875,237.468689 328.555115,237.830170 329.119324,238.191650 
	C329.632935,238.580078 330.146545,238.968506 331.029816,239.825775 
	C331.712585,240.476593 332.025665,240.658569 332.338776,240.840546 
	C332.338776,240.840546 332.677063,240.975540 332.917511,241.366211 
	C333.764008,242.166351 334.370087,242.575790 334.976135,242.985229 
	C335.585358,243.421875 336.194550,243.858505 337.106445,244.752731 
	C337.709351,245.393921 338.009583,245.577530 338.309784,245.761139 
	C338.309784,245.761139 338.199158,245.761368 338.349182,245.950256 
	C338.980652,246.421677 339.462067,246.704224 339.943481,246.986786 
	C340.245239,247.137054 340.509064,247.337357 340.975830,248.111816 
	C344.740479,251.455963 348.264252,254.275970 351.788055,257.095978 
	C352.087128,257.287964 352.386169,257.479980 352.847229,258.271332 
	C354.427460,259.860352 355.845703,260.850037 357.263947,261.839691 
	C357.699829,262.196503 358.135712,262.553284 358.844727,263.445953 
	C361.501404,265.923828 363.884949,267.865845 366.268463,269.807861 
	C367.366821,270.803162 368.465210,271.798462 369.869080,273.182037 
	C370.476440,273.757446 370.778320,273.944580 371.080170,274.131714 
	C371.601501,274.559814 372.122833,274.987915 372.941650,275.974304 
	C373.853973,276.992523 374.468781,277.452515 375.083618,277.912476 
	C375.083618,277.912476 375.001221,277.998779 375.143890,278.243622 
	C375.923035,278.942627 376.559509,279.396820 377.195984,279.850983 
	C377.750732,280.311340 378.305511,280.771729 379.151733,281.701721 
	C379.740784,282.391205 380.038361,282.611053 380.335968,282.830933 
	C380.335968,282.830933 380.671570,283.006500 380.881897,283.456268 
	C382.363159,284.945770 383.634064,285.985504 384.904968,287.025238 
	C404.340607,306.653809 423.927307,326.136780 443.093750,346.024750 
	C447.297638,350.386932 450.677521,352.219391 457.106934,350.876251 
	C485.589813,344.925903 514.099792,346.786163 542.446350,352.434540 
	C589.234070,361.757477 632.098511,380.944092 673.094727,404.728607 
	C716.174683,429.722046 755.675354,459.641571 793.038574,492.454407 
	C802.042908,500.362152 810.825195,508.526520 819.597839,516.692810 
	C824.275513,521.047119 824.241577,525.091492 819.788086,529.551025 
	C754.477661,594.949036 689.158325,660.338074 623.846863,725.734985 
	C592.663330,756.959412 561.503174,788.207092 530.305420,819.417236 
	C524.292786,825.432190 520.635498,825.436096 514.772156,819.167664 
	C466.121582,767.155396 422.703644,711.311462 389.733765,647.854248 
	C386.666626,641.950989 383.877014,635.903442 381.015747,629.277710 
	C380.357849,627.439575 379.642792,626.246765 378.927765,625.053894 
	C378.927765,625.053894 378.999969,625.012878 378.957703,624.664001 
	C377.426788,621.199158 375.938171,618.083252 374.449585,614.967285 
	C373.925201,613.720154 373.400848,612.473022 372.830872,610.511597 
	C372.136200,608.528870 371.487122,607.260498 370.838043,605.992065 
	C370.838043,605.992065 370.664581,605.870972 370.685486,605.456055 
	C370.341553,604.342834 369.976715,603.644592 369.611908,602.946350 
	C369.495850,602.732727 369.379822,602.519165 369.189697,601.571045 
	C366.692169,594.205139 364.268707,587.573792 361.845245,580.942505 
	C361.659241,580.521423 361.473267,580.100403 361.398071,579.185059 
	C361.691071,578.473511 361.853668,578.242432 362.024384,577.983154 
	C362.052185,577.968872 362.002655,578.003357 361.744812,578.002075 
	C361.315125,578.002625 361.143250,578.004333 360.971375,578.006104 
M612.468445,644.970398 
	C663.845276,593.559448 715.222107,542.148499 766.902771,490.433533 
	C764.876099,488.599670 763.518677,487.142059 761.943115,485.980042 
	C737.438538,467.907013 713.571594,448.869080 688.232239,432.050476 
	C643.978210,402.677704 596.609619,379.620056 544.230347,368.369232 
	C512.106995,361.469269 479.972290,359.742737 447.802765,368.741699 
	C414.418915,378.080383 389.704376,397.715942 375.044464,429.257080 
	C361.401703,458.609802 359.652588,489.671722 363.528595,521.243652 
	C368.730804,563.618225 383.541748,602.936890 402.914001,640.635864 
	C425.544495,684.675598 453.916718,724.901306 485.458893,762.956970 
	C486.686279,764.437805 488.055237,765.801331 489.932037,767.844055 
	C530.877014,726.773926 571.413025,686.114075 612.468445,644.970398 
M353.556946,431.748901 
	C357.239777,435.327179 357.354462,431.504028 358.217377,429.456848 
	C371.555725,397.813660 393.583099,374.635162 425.113525,360.690918 
	C427.465698,359.650665 429.779053,358.522797 432.811737,357.108704 
	C424.464172,348.296082 417.047791,339.743927 408.881073,331.981110 
	C384.869476,309.157104 361.141296,285.982086 336.221832,264.179230 
	C304.222504,236.182068 270.197479,210.753189 232.412277,190.829529 
	C219.718063,184.136047 206.687759,178.134476 192.235764,176.231552 
	C178.372314,174.406128 172.677460,179.690735 175.130203,193.358932 
	C176.673294,201.957947 179.299072,210.559799 182.777527,218.579895 
	C197.042618,251.470123 217.503571,280.579071 239.406021,308.698395 
	C273.768829,352.814850 312.098755,393.279785 353.556946,431.748901 
M715.845703,612.345642 
	C745.337341,582.849609 774.828979,553.353577 804.687439,523.490601 
	C796.904846,516.479980 789.605408,510.175232 782.648682,503.512665 
	C779.608887,500.601349 777.677002,500.940033 774.866760,503.760132 
	C733.958740,544.811707 692.966064,585.778931 651.991089,626.763855 
	C608.187744,670.577698 564.386719,714.393860 520.571716,758.196106 
	C513.644287,765.121582 506.648560,771.978760 499.233734,779.313232 
	C507.253387,788.196289 514.851868,796.612854 522.848816,805.470642 
	C587.342346,740.937744 651.346619,676.894470 715.845703,612.345642 
z"/>
<path fill="#E2F7E3" opacity="1.000000" stroke="none" 
	d="
M346.860718,498.384216 
	C347.978760,507.032013 348.647125,516.122192 350.104401,525.084106 
	C351.696869,534.877502 353.984924,544.559448 356.034729,554.276245 
	C357.599426,561.693420 359.265350,569.089233 360.849304,576.944458 
	C358.975647,571.555298 356.837219,565.791626 355.357269,559.863525 
	C350.351440,539.812012 346.592773,519.560486 346.860718,498.384216 
z"/>
<path fill="#E2F7E3" opacity="1.000000" stroke="none" 
	d="
M349.166931,462.433350 
	C349.129608,467.922821 349.072510,473.773621 348.708649,479.605347 
	C348.422913,484.185028 347.758057,488.741058 347.069946,493.673279 
	C347.590485,483.621460 348.302704,473.203949 349.166931,462.433350 
z"/>
<path fill="#E2F7E3" opacity="1.000000" stroke="none" 
	d="
M361.829163,581.306519 
	C364.268707,587.573792 366.692169,594.205139 369.131531,601.211182 
	C366.702637,594.947449 364.257843,588.308960 361.829163,581.306519 
z"/>
<path fill="#E2F7E3" opacity="1.000000" stroke="none" 
	d="
M321.247864,421.285126 
	C326.597351,422.001068 328.673462,426.798706 331.803528,430.834839 
	C328.363831,427.983307 324.862213,424.786926 321.247864,421.285126 
z"/>
<path fill="#D6F5D6" opacity="1.000000" stroke="none" 
	d="
M351.626587,256.812866 
	C348.264252,254.275970 344.740479,251.455963 341.128174,248.309464 
	C344.514801,250.831894 347.989960,253.680801 351.626587,256.812866 
z"/>
<path fill="#DFF6E0" opacity="1.000000" stroke="none" 
	d="
M301.095459,401.347595 
	C304.216461,404.154266 307.528229,407.234955 310.914886,410.654877 
	C307.755249,407.869965 304.520721,404.745819 301.095459,401.347595 
z"/>
<path fill="#E2F7E3" opacity="1.000000" stroke="none" 
	d="
M337.060669,436.355988 
	C340.192993,438.867096 343.450623,441.684570 346.805542,444.824585 
	C343.663910,442.318909 340.424957,439.490601 337.060669,436.355988 
z"/>
<path fill="#D6F5D6" opacity="1.000000" stroke="none" 
	d="
M324.999023,234.616974 
	C322.177002,232.781662 319.193634,230.658875 316.155426,228.190826 
	C319.012909,230.006882 321.925293,232.168198 324.999023,234.616974 
z"/>
<path fill="#D6F5D6" opacity="1.000000" stroke="none" 
	d="
M366.120178,269.511536 
	C363.884949,267.865845 361.501404,265.923828 359.017029,263.671356 
	C361.268097,265.312347 363.619995,267.263794 366.120178,269.511536 
z"/>
<path fill="#E2F7E3" opacity="1.000000" stroke="none" 
	d="
M374.516785,615.315430 
	C375.938171,618.083252 377.426788,621.199158 378.926758,624.692261 
	C377.486694,621.934143 376.035309,618.798828 374.516785,615.315430 
z"/>
<path fill="#E2F7E3" opacity="1.000000" stroke="none" 
	d="
M331.940582,431.438629 
	C333.494751,432.550507 335.171875,433.968353 336.899292,435.724792 
	C335.320892,434.623779 333.692200,433.184174 331.940582,431.438629 
z"/>
<path fill="#D6F5D6" opacity="1.000000" stroke="none" 
	d="
M357.112732,261.556091 
	C355.845703,260.850037 354.427460,259.860352 352.973145,258.510071 
	C354.278564,259.190460 355.620026,260.231476 357.112732,261.556091 
z"/>
<path fill="#D6F5D6" opacity="1.000000" stroke="none" 
	d="
M278.893402,200.666168 
	C277.406616,199.978104 275.764740,199.018326 274.002686,197.765335 
	C275.501068,198.446213 277.119720,199.420319 278.893402,200.666168 
z"/>
<path fill="#D6F5D6" opacity="1.000000" stroke="none" 
	d="
M268.006836,193.610306 
	C266.231201,192.781052 264.270081,191.679626 262.189636,190.265152 
	C263.987305,191.080780 265.904358,192.209457 268.006836,193.610306 
z"/>
<path fill="#E2F7E3" opacity="1.000000" stroke="none" 
	d="
M351.382080,450.248047 
	C351.385162,451.488800 351.271088,453.088196 350.952606,454.870880 
	C350.920441,453.571686 351.092682,452.089142 351.382080,450.248047 
z"/>
<path fill="#E2F7E3" opacity="1.000000" stroke="none" 
	d="
M378.970428,625.384583 
	C379.642792,626.246765 380.357849,627.439575 380.955322,628.920166 
	C380.229553,628.043701 379.621307,626.879456 378.970428,625.384583 
z"/>
<path fill="#D6F5D6" opacity="1.000000" stroke="none" 
	d="
M384.798889,286.735901 
	C383.634064,285.985504 382.363159,284.945770 381.000488,283.603882 
	C382.170105,284.350006 383.431488,285.398285 384.798889,286.735901 
z"/>
<path fill="#D6F5D6" opacity="1.000000" stroke="none" 
	d="
M312.056885,224.599487 
	C311.167297,224.227005 310.127289,223.590027 309.002380,222.640717 
	C309.913788,222.997269 310.910126,223.666138 312.056885,224.599487 
z"/>
<path fill="#D6F5D6" opacity="1.000000" stroke="none" 
	d="
M261.856934,189.679581 
	C260.743988,189.282990 259.454010,188.634201 258.003540,187.716324 
	C259.122040,188.107285 260.400970,188.767334 261.856934,189.679581 
z"/>
<path fill="#D6F5D6" opacity="1.000000" stroke="none" 
	d="
M288.934204,207.652191 
	C287.838867,207.145187 286.600830,206.349136 285.193726,205.277832 
	C286.280273,205.789413 287.535889,206.576279 288.934204,207.652191 
z"/>
<path fill="#D6F5D6" opacity="1.000000" stroke="none" 
	d="
M272.892090,196.686676 
	C271.765198,196.280090 270.482025,195.606415 269.052673,194.654785 
	C270.182953,195.057770 271.459351,195.738693 272.892090,196.686676 
z"/>
<path fill="#D6F5D6" opacity="1.000000" stroke="none" 
	d="
M257.252014,186.981476 
	C256.357117,186.708267 255.300751,186.188110 254.106537,185.398575 
	C255.009293,185.664307 256.049896,186.199417 257.252014,186.981476 
z"/>
<path fill="#E2F7E3" opacity="1.000000" stroke="none" 
	d="
M350.058929,457.264923 
	C350.242371,457.673553 350.282562,458.311737 350.134705,459.019897 
	C349.936310,458.558075 349.926025,458.026306 350.058929,457.264923 
z"/>
<path fill="#E2F7E3" opacity="1.000000" stroke="none" 
	d="
M370.864868,606.350769 
	C371.487122,607.260498 372.136200,608.528870 372.768616,610.178101 
	C372.131836,609.275818 371.511749,607.992615 370.864868,606.350769 
z"/>
<path fill="#E2F7E3" opacity="1.000000" stroke="none" 
	d="
M348.923462,447.380005 
	C349.546112,447.630859 350.261017,448.138580 351.073364,448.901062 
	C350.452454,448.649506 349.734070,448.143188 348.923462,447.380005 
z"/>
<path fill="#D6F5D6" opacity="1.000000" stroke="none" 
	d="
M304.623413,218.832520 
	C303.913818,218.626083 303.064911,218.159348 302.091919,217.415436 
	C302.806610,217.616241 303.645325,218.094223 304.623413,218.832520 
z"/>
<path fill="#D6F5D6" opacity="1.000000" stroke="none" 
	d="
M298.850586,214.716309 
	C298.124939,214.471954 297.242798,213.956299 296.198120,213.169144 
	C296.921783,213.413437 297.807953,213.929214 298.850586,214.716309 
z"/>
<path fill="#D6F5D6" opacity="1.000000" stroke="none" 
	d="
M334.857544,242.730835 
	C334.370087,242.575790 333.764008,242.166351 333.046692,241.494583 
	C333.536621,241.646988 334.137817,242.061707 334.857544,242.730835 
z"/>
<path fill="#D6F5D6" opacity="1.000000" stroke="none" 
	d="
M284.848877,204.752960 
	C284.379272,204.651688 283.772552,204.321747 283.028015,203.764160 
	C283.497406,203.865784 284.104584,204.195023 284.848877,204.752960 
z"/>
<path fill="#E2F7E3" opacity="1.000000" stroke="none" 
	d="
M346.961121,445.378571 
	C347.468079,445.592682 348.082001,446.087219 348.787598,446.875732 
	C348.275543,446.666168 347.671814,446.162598 346.961121,445.378571 
z"/>
<path fill="#D6F5D6" opacity="1.000000" stroke="none" 
	d="
M377.087524,279.573303 
	C376.559509,279.396820 375.923035,278.942627 375.186523,278.201752 
	C375.717377,278.375244 376.348236,278.835449 377.087524,279.573303 
z"/>
<path fill="#D6F5D6" opacity="1.000000" stroke="none" 
	d="
M374.975403,277.639160 
	C374.468781,277.452515 373.853973,276.992523 373.140442,276.250061 
	C373.650238,276.433655 374.258728,276.899750 374.975403,277.639160 
z"/>
<path fill="#E2F7E3" opacity="1.000000" stroke="none" 
	d="
M369.628754,603.244019 
	C369.976715,603.644592 370.341553,604.342834 370.696228,605.350830 
	C370.339294,604.954224 369.992462,604.247986 369.628754,603.244019 
z"/>
<path fill="#D6F5D6" opacity="1.000000" stroke="none" 
	d="
M329.029175,237.948486 
	C328.555115,237.830170 327.990875,237.468689 327.327454,236.865753 
	C327.798523,236.984650 328.368744,237.344986 329.029175,237.948486 
z"/>
<path fill="#D6F5D6" opacity="1.000000" stroke="none" 
	d="
M371.019836,273.955963 
	C370.778320,273.944580 370.476440,273.757446 370.102112,273.401611 
	C370.339600,273.415375 370.649567,273.597809 371.019836,273.955963 
z"/>
<path fill="#D6F5D6" opacity="1.000000" stroke="none" 
	d="
M339.816345,246.728058 
	C339.462067,246.704224 338.980652,246.421677 338.349548,245.894943 
	C338.696289,245.923615 339.192749,246.196472 339.816345,246.728058 
z"/>
<path fill="#D6F5D6" opacity="1.000000" stroke="none" 
	d="
M290.182648,208.607758 
	C290.015747,208.674164 289.697601,208.505386 289.206665,208.125641 
	C289.366394,208.067291 289.698914,208.219940 290.182648,208.607758 
z"/>
<path fill="#D6F5D6" opacity="1.000000" stroke="none" 
	d="
M292.234192,209.962555 
	C292.187897,210.013123 292.081390,210.015640 292.092682,209.984390 
	C292.103973,209.953140 292.280457,209.911987 292.234192,209.962555 
z"/>
<path fill="#D6F5D6" opacity="1.000000" stroke="none" 
	d="
M294.362488,211.507874 
	C294.187317,211.567413 293.844788,211.376312 293.321411,210.951294 
	C293.492126,210.897339 293.843628,211.077286 294.362488,211.507874 
z"/>
<path fill="#D6F5D6" opacity="1.000000" stroke="none" 
	d="
M301.294189,216.537659 
	C301.116974,216.603165 300.787811,216.414612 300.275757,216.005920 
	C300.442657,215.951721 300.792419,216.117661 301.294189,216.537659 
z"/>
<path fill="#D6F5D6" opacity="1.000000" stroke="none" 
	d="
M380.218933,282.566437 
	C380.038361,282.611053 379.740784,282.391205 379.293335,281.935425 
	C379.462982,281.900330 379.782440,282.101135 380.218933,282.566437 
z"/>
<path fill="#D6F5D6" opacity="1.000000" stroke="none" 
	d="
M308.159485,221.594681 
	C307.985565,221.669189 307.683990,221.499664 307.211304,221.132660 
	C307.370728,221.073654 307.701233,221.212143 308.159485,221.594681 
z"/>
<path fill="#E2F7E3" opacity="1.000000" stroke="none" 
	d="
M360.963440,578.268188 
	C361.143250,578.004333 361.315125,578.002625 361.743500,578.000427 
	C362.000000,578.000000 361.996582,577.997498 361.996582,577.997498 
	C361.853668,578.242432 361.691071,578.473511 361.358459,578.840332 
	C361.123871,578.836731 361.039703,578.683533 360.963440,578.268188 
z"/>
<path fill="#D6F5D6" opacity="1.000000" stroke="none" 
	d="
M338.183533,245.518005 
	C338.009583,245.577530 337.709351,245.393921 337.256287,244.993195 
	C337.421387,244.942352 337.739319,245.108597 338.183533,245.518005 
z"/>
<path fill="#D6F5D6" opacity="1.000000" stroke="none" 
	d="
M332.198730,240.593491 
	C332.025665,240.658569 331.712585,240.476593 331.226807,240.082489 
	C331.388977,240.029037 331.723846,240.187744 332.198730,240.593491 
z"/>
<path fill="#D6F5D6" opacity="1.000000" stroke="none" 
	d="
M253.162872,184.609344 
	C253.002304,184.689377 252.686874,184.547745 252.193481,184.214539 
	C252.346344,184.144547 252.677185,184.266113 253.162872,184.609344 
z"/>
<path fill="#D6F5D6" opacity="1.000000" stroke="none" 
	d="
M327.203430,236.503082 
	C327.025330,236.566849 326.723114,236.381546 326.262573,235.980865 
	C326.429291,235.928345 326.754303,236.091187 327.203430,236.503082 
z"/>
<path fill="#67BB6B" opacity="1.000000" stroke="none" 
	d="
M612.208740,645.212280 
	C571.413025,686.114075 530.877014,726.773926 489.932037,767.844055 
	C488.055237,765.801331 486.686279,764.437805 485.458893,762.956970 
	C453.916718,724.901306 425.544495,684.675598 402.914001,640.635864 
	C383.541748,602.936890 368.730804,563.618225 363.528595,521.243652 
	C359.652588,489.671722 361.401703,458.609802 375.044464,429.257080 
	C389.704376,397.715942 414.418915,378.080383 447.802765,368.741699 
	C479.972290,359.742737 512.106995,361.469269 544.230347,368.369232 
	C596.609619,379.620056 643.978210,402.677704 688.232239,432.050476 
	C713.571594,448.869080 737.438538,467.907013 761.943115,485.980042 
	C763.518677,487.142059 764.876099,488.599670 766.902771,490.433533 
	C715.222107,542.148499 663.845276,593.559448 612.208740,645.212280 
M460.617737,535.742493 
	C456.880798,528.308533 452.839478,521.009216 449.477753,513.409302 
	C444.353424,501.824615 439.592163,490.042542 439.774780,477.026581 
	C439.934448,465.647003 444.919464,459.109009 456.104553,457.112396 
	C462.750000,455.926147 469.666046,456.171265 476.466248,455.964203 
	C481.587860,455.808258 484.798767,453.359802 485.110901,448.964783 
	C485.432495,444.435944 482.316406,441.082245 476.974060,440.949463 
	C470.661102,440.792633 464.269806,440.585999 458.027771,441.346863 
	C434.550568,444.208496 422.356415,459.650238 424.630005,483.119110 
	C425.931641,496.554840 430.375336,509.087006 435.980438,521.224304 
	C449.519897,550.542786 467.435974,577.180054 486.627899,602.998413 
	C493.176208,611.807678 499.962891,620.456543 506.994110,628.883789 
	C511.286560,634.028503 519.372498,632.762756 520.439880,626.771179 
	C520.929932,624.020020 519.469788,620.159119 517.593384,617.865540 
	C496.579559,592.179932 477.440247,565.216431 460.617737,535.742493 
z"/>
<path fill="#68BA6C" opacity="1.000000" stroke="none" 
	d="
M353.325806,431.503326 
	C312.098755,393.279785 273.768829,352.814850 239.406021,308.698395 
	C217.503571,280.579071 197.042618,251.470123 182.777527,218.579895 
	C179.299072,210.559799 176.673294,201.957947 175.130203,193.358932 
	C172.677460,179.690735 178.372314,174.406128 192.235764,176.231552 
	C206.687759,178.134476 219.718063,184.136047 232.412277,190.829529 
	C270.197479,210.753189 304.222504,236.182068 336.221832,264.179230 
	C361.141296,285.982086 384.869476,309.157104 408.881073,331.981110 
	C417.047791,339.743927 424.464172,348.296082 432.811737,357.108704 
	C429.779053,358.522797 427.465698,359.650665 425.113525,360.690918 
	C393.583099,374.635162 371.555725,397.813660 358.217377,429.456848 
	C357.354462,431.504028 357.239777,435.327179 353.325806,431.503326 
M252.754578,221.733948 
	C246.628983,219.811630 240.599197,216.725204 234.357666,216.211411 
	C221.695618,215.169083 213.777222,224.537979 215.554169,237.169601 
	C217.696808,252.400864 226.789917,263.526337 237.570694,273.507904 
	C246.488495,281.764618 256.316681,288.532349 268.955933,289.477875 
	C281.217346,290.395081 289.408844,282.397949 288.865692,270.142303 
	C288.756470,267.677368 288.384521,265.135315 287.609741,262.802826 
	C281.604065,244.723267 269.239288,231.931503 252.754578,221.733948 
M364.488190,354.061066 
	C353.213409,342.851349 341.936035,331.644226 330.664825,320.430939 
	C323.582550,313.385040 316.716705,306.099152 309.293793,299.433136 
	C307.315948,297.656982 303.467346,296.827820 300.810364,297.328735 
	C298.922516,297.684662 296.392578,300.957977 296.317688,303.008392 
	C296.223755,305.579193 297.748779,308.805603 299.614960,310.752045 
	C309.640198,321.208557 319.981537,331.362213 330.227142,341.607025 
	C340.354584,351.733673 350.464172,361.878601 360.652130,371.944092 
	C364.386536,375.633606 368.575104,375.911011 371.771881,372.970093 
	C375.013306,369.988068 374.945770,365.112976 371.537933,361.404510 
	C369.398834,359.076752 367.165863,356.835236 364.488190,354.061066 
z"/>
<path fill="#6ABB6D" opacity="1.000000" stroke="none" 
	d="
M715.598267,612.598450 
	C651.346619,676.894470 587.342346,740.937744 522.848816,805.470642 
	C514.851868,796.612854 507.253387,788.196289 499.233734,779.313232 
	C506.648560,771.978760 513.644287,765.121582 520.571716,758.196106 
	C564.386719,714.393860 608.187744,670.577698 651.991089,626.763855 
	C692.966064,585.778931 733.958740,544.811707 774.866760,503.760132 
	C777.677002,500.940033 779.608887,500.601349 782.648682,503.512665 
	C789.605408,510.175232 796.904846,516.479980 804.687439,523.490601 
	C774.828979,553.353577 745.337341,582.849609 715.598267,612.598450 
z"/>
<path fill="#E2F7E3" opacity="1.000000" stroke="none" 
	d="
M362.001343,578.001709 
	C362.002655,578.003357 362.052185,577.968872 362.024384,577.983154 
	C361.996582,577.997498 362.000000,578.000000 362.001343,578.001709 
z"/>
<path fill="#F6FCF5" opacity="1.000000" stroke="none" 
	d="
M460.771759,536.077576 
	C477.440247,565.216431 496.579559,592.179932 517.593384,617.865540 
	C519.469788,620.159119 520.929932,624.020020 520.439880,626.771179 
	C519.372498,632.762756 511.286560,634.028503 506.994110,628.883789 
	C499.962891,620.456543 493.176208,611.807678 486.627899,602.998413 
	C467.435974,577.180054 449.519897,550.542786 435.980438,521.224304 
	C430.375336,509.087006 425.931641,496.554840 424.630005,483.119110 
	C422.356415,459.650238 434.550568,444.208496 458.027771,441.346863 
	C464.269806,440.585999 470.661102,440.792633 476.974060,440.949463 
	C482.316406,441.082245 485.432495,444.435944 485.110901,448.964783 
	C484.798767,453.359802 481.587860,455.808258 476.466248,455.964203 
	C469.666046,456.171265 462.750000,455.926147 456.104553,457.112396 
	C444.919464,459.109009 439.934448,465.647003 439.774780,477.026581 
	C439.592163,490.042542 444.353424,501.824615 449.477753,513.409302 
	C452.839478,521.009216 456.880798,528.308533 460.771759,536.077576 
z"/>
<path fill="#F6FCF5" opacity="1.000000" stroke="none" 
	d="
M253.075775,221.910736 
	C269.239288,231.931503 281.604065,244.723267 287.609741,262.802826 
	C288.384521,265.135315 288.756470,267.677368 288.865692,270.142303 
	C289.408844,282.397949 281.217346,290.395081 268.955933,289.477875 
	C256.316681,288.532349 246.488495,281.764618 237.570694,273.507904 
	C226.789917,263.526337 217.696808,252.400864 215.554169,237.169601 
	C213.777222,224.537979 221.695618,215.169083 234.357666,216.211411 
	C240.599197,216.725204 246.628983,219.811630 253.075775,221.910736 
M230.927643,238.487213 
	C236.711563,254.143173 247.736450,264.977570 262.356049,272.420929 
	C264.246246,273.383270 266.452454,273.809235 268.562225,274.237732 
	C272.417908,275.020813 274.511536,273.620972 273.523376,269.443176 
	C272.915222,266.872101 272.184448,264.267090 271.054382,261.893646 
	C266.894989,253.157547 260.770111,245.853729 252.967926,240.288422 
	C248.044373,236.776443 242.524521,233.756226 236.835678,231.758087 
	C231.145508,229.759506 229.738708,231.596741 230.927643,238.487213 
z"/>
<path fill="#F3FBF3" opacity="1.000000" stroke="none" 
	d="
M364.731567,354.308044 
	C367.165863,356.835236 369.398834,359.076752 371.537933,361.404510 
	C374.945770,365.112976 375.013306,369.988068 371.771881,372.970093 
	C368.575104,375.911011 364.386536,375.633606 360.652130,371.944092 
	C350.464172,361.878601 340.354584,351.733673 330.227142,341.607025 
	C319.981537,331.362213 309.640198,321.208557 299.614960,310.752045 
	C297.748779,308.805603 296.223755,305.579193 296.317688,303.008392 
	C296.392578,300.957977 298.922516,297.684662 300.810364,297.328735 
	C303.467346,296.827820 307.315948,297.656982 309.293793,299.433136 
	C316.716705,306.099152 323.582550,313.385040 330.664825,320.430939 
	C341.936035,331.644226 353.213409,342.851349 364.731567,354.308044 
z"/>
<path fill="#6CBA71" opacity="1.000000" stroke="none" 
	d="
M230.808533,238.109070 
	C229.738708,231.596741 231.145508,229.759506 236.835678,231.758087 
	C242.524521,233.756226 248.044373,236.776443 252.967926,240.288422 
	C260.770111,245.853729 266.894989,253.157547 271.054382,261.893646 
	C272.184448,264.267090 272.915222,266.872101 273.523376,269.443176 
	C274.511536,273.620972 272.417908,275.020813 268.562225,274.237732 
	C266.452454,273.809235 264.246246,273.383270 262.356049,272.420929 
	C247.736450,264.977570 236.711563,254.143173 230.808533,238.109070 
z"/>
</svg>